<?xml version="1.0" encoding="UTF-8"?>
<svg version="1.1" xmlns="http://www.w3.org/2000/svg" width="103" height="103">
<path d="M0 0 C2.5625 0.1875 2.5625 0.1875 4.5625 2.1875 C5.27658334 4.17106483 5.94867742 6.17065437 6.5625 8.1875 C9.53963169 7.77400949 11.23208575 7.46628703 13.5625 5.5 C14.2225 5.066875 14.8825 4.63375 15.5625 4.1875 C18.25 4.8125 18.25 4.8125 20.5625 6.1875 C21.72191038 9.66573115 21.27070884 11.64645578 20.5625 15.1875 C23.08576296 16.77622112 24.08633961 17.29463609 27.0625 16.625 C29.5625 16.1875 29.5625 16.1875 31.875 17.625 C32.431875 18.140625 32.98875 18.65625 33.5625 19.1875 C33.04213877 23.03817311 32.24922299 24.50077701 29.5625 27.1875 C29.5625 28.5075 29.5625 29.8275 29.5625 31.1875 C30.696875 31.661875 31.83125 32.13625 33 32.625 C36.5625 34.1875 36.5625 34.1875 37.5625 35.1875 C37.75 37.625 37.75 37.625 37.5625 40.1875 C35.09971199 42.65028801 32.85573018 43.18521255 29.5625 44.1875 C29.97599051 47.16463169 30.28371297 48.85708575 32.25 51.1875 C32.683125 51.8475 33.11625 52.5075 33.5625 53.1875 C32.9375 55.875 32.9375 55.875 31.5625 58.1875 C28.08426885 59.34691038 26.10354422 58.89570884 22.5625 58.1875 C20.97377888 60.71076296 20.45536391 61.71133961 21.125 64.6875 C21.5625 67.1875 21.5625 67.1875 20.125 69.5 C19.609375 70.056875 19.09375 70.61375 18.5625 71.1875 C14.71182689 70.66713877 13.24922299 69.87422299 10.5625 67.1875 C9.2425 67.1875 7.9225 67.1875 6.5625 67.1875 C5.8509375 68.8890625 5.8509375 68.8890625 5.125 70.625 C3.5625 74.1875 3.5625 74.1875 2.5625 75.1875 C0.125 75.375 0.125 75.375 -2.4375 75.1875 C-4.90028801 72.72471199 -5.43521255 70.48073018 -6.4375 67.1875 C-9.41463169 67.60099051 -11.10708575 67.90871297 -13.4375 69.875 C-14.0975 70.308125 -14.7575 70.74125 -15.4375 71.1875 C-18.125 70.5625 -18.125 70.5625 -20.4375 69.1875 C-21.59691038 65.70926885 -21.14570884 63.72854422 -20.4375 60.1875 C-22.96076296 58.59877888 -23.96133961 58.08036391 -26.9375 58.75 C-29.4375 59.1875 -29.4375 59.1875 -31.75 57.75 C-32.5853125 56.9765625 -32.5853125 56.9765625 -33.4375 56.1875 C-32.91713877 52.33682689 -32.12422299 50.87422299 -29.4375 48.1875 C-29.4375 46.8675 -29.4375 45.5475 -29.4375 44.1875 C-30.571875 43.713125 -31.70625 43.23875 -32.875 42.75 C-36.4375 41.1875 -36.4375 41.1875 -37.4375 40.1875 C-37.625 37.75 -37.625 37.75 -37.4375 35.1875 C-34.97471199 32.72471199 -32.73073018 32.18978745 -29.4375 31.1875 C-29.85099051 28.21036831 -30.15871297 26.51791425 -32.125 24.1875 C-32.558125 23.5275 -32.99125 22.8675 -33.4375 22.1875 C-32.8125 19.5 -32.8125 19.5 -31.4375 17.1875 C-27.95926885 16.02808962 -25.97854422 16.47929116 -22.4375 17.1875 C-20.84877888 14.66423704 -20.33036391 13.66366039 -21 10.6875 C-21.4375 8.1875 -21.4375 8.1875 -20 5.875 C-19.484375 5.318125 -18.96875 4.76125 -18.4375 4.1875 C-14.58682689 4.70786123 -13.12422299 5.50077701 -10.4375 8.1875 C-9.1175 8.1875 -7.7975 8.1875 -6.4375 8.1875 C-5.963125 7.053125 -5.48875 5.91875 -5 4.75 C-3.01850559 0.23219274 -3.01850559 0.23219274 0 0 Z " fill="#F6FBFA" transform="translate(51.4375,13.8125)"/>
<path d="M0 0 C2.5625 0.1875 2.5625 0.1875 4.5625 2.1875 C5.27658334 4.17106483 5.94867742 6.17065437 6.5625 8.1875 C9.53963169 7.77400949 11.23208575 7.46628703 13.5625 5.5 C14.2225 5.066875 14.8825 4.63375 15.5625 4.1875 C18.25 4.8125 18.25 4.8125 20.5625 6.1875 C21.72191038 9.66573115 21.27070884 11.64645578 20.5625 15.1875 C23.08576296 16.77622112 24.08633961 17.29463609 27.0625 16.625 C29.5625 16.1875 29.5625 16.1875 31.875 17.625 C32.431875 18.140625 32.98875 18.65625 33.5625 19.1875 C33.04213877 23.03817311 32.24922299 24.50077701 29.5625 27.1875 C29.5625 28.5075 29.5625 29.8275 29.5625 31.1875 C30.696875 31.661875 31.83125 32.13625 33 32.625 C36.5625 34.1875 36.5625 34.1875 37.5625 35.1875 C37.75 37.625 37.75 37.625 37.5625 40.1875 C35.09971199 42.65028801 32.85573018 43.18521255 29.5625 44.1875 C29.97599051 47.16463169 30.28371297 48.85708575 32.25 51.1875 C32.683125 51.8475 33.11625 52.5075 33.5625 53.1875 C32.9375 55.875 32.9375 55.875 31.5625 58.1875 C28.08426885 59.34691038 26.10354422 58.89570884 22.5625 58.1875 C20.97377888 60.71076296 20.45536391 61.71133961 21.125 64.6875 C21.5625 67.1875 21.5625 67.1875 20.125 69.5 C19.609375 70.056875 19.09375 70.61375 18.5625 71.1875 C14.71182689 70.66713877 13.24922299 69.87422299 10.5625 67.1875 C9.2425 67.1875 7.9225 67.1875 6.5625 67.1875 C5.8509375 68.8890625 5.8509375 68.8890625 5.125 70.625 C3.5625 74.1875 3.5625 74.1875 2.5625 75.1875 C0.125 75.375 0.125 75.375 -2.4375 75.1875 C-4.90028801 72.72471199 -5.43521255 70.48073018 -6.4375 67.1875 C-9.41463169 67.60099051 -11.10708575 67.90871297 -13.4375 69.875 C-14.0975 70.308125 -14.7575 70.74125 -15.4375 71.1875 C-18.125 70.5625 -18.125 70.5625 -20.4375 69.1875 C-21.59691038 65.70926885 -21.14570884 63.72854422 -20.4375 60.1875 C-22.96076296 58.59877888 -23.96133961 58.08036391 -26.9375 58.75 C-29.4375 59.1875 -29.4375 59.1875 -31.75 57.75 C-32.5853125 56.9765625 -32.5853125 56.9765625 -33.4375 56.1875 C-32.91713877 52.33682689 -32.12422299 50.87422299 -29.4375 48.1875 C-29.4375 46.8675 -29.4375 45.5475 -29.4375 44.1875 C-30.571875 43.713125 -31.70625 43.23875 -32.875 42.75 C-36.4375 41.1875 -36.4375 41.1875 -37.4375 40.1875 C-37.625 37.75 -37.625 37.75 -37.4375 35.1875 C-34.97471199 32.72471199 -32.73073018 32.18978745 -29.4375 31.1875 C-29.85099051 28.21036831 -30.15871297 26.51791425 -32.125 24.1875 C-32.558125 23.5275 -32.99125 22.8675 -33.4375 22.1875 C-32.8125 19.5 -32.8125 19.5 -31.4375 17.1875 C-27.95926885 16.02808962 -25.97854422 16.47929116 -22.4375 17.1875 C-20.84877888 14.66423704 -20.33036391 13.66366039 -21 10.6875 C-21.4375 8.1875 -21.4375 8.1875 -20 5.875 C-19.484375 5.318125 -18.96875 4.76125 -18.4375 4.1875 C-14.58682689 4.70786123 -13.12422299 5.50077701 -10.4375 8.1875 C-9.1175 8.1875 -7.7975 8.1875 -6.4375 8.1875 C-5.963125 7.053125 -5.48875 5.91875 -5 4.75 C-3.01850559 0.23219274 -3.01850559 0.23219274 0 0 Z M-1.4375 10.1875 C-1.829375 10.868125 -2.22125 11.54875 -2.625 12.25 C-3.223125 12.889375 -3.82125 13.52875 -4.4375 14.1875 C-6.83064196 14.15659226 -9.03064301 13.8065626 -11.37890625 13.3515625 C-12.39791016 13.27035156 -12.39791016 13.27035156 -13.4375 13.1875 C-15.90028801 15.65028801 -16.43521255 17.89426982 -17.4375 21.1875 C-19.4175 21.5175 -21.3975 21.8475 -23.4375 22.1875 C-23.39109375 22.87457031 -23.3446875 23.56164063 -23.296875 24.26953125 C-23.26078125 25.17058594 -23.2246875 26.07164063 -23.1875 27 C-23.14109375 27.89332031 -23.0946875 28.78664063 -23.046875 29.70703125 C-23.4375 32.1875 -23.4375 32.1875 -25.453125 34.01171875 C-26.10796875 34.39972656 -26.7628125 34.78773437 -27.4375 35.1875 C-27.16715366 37.62467258 -27.16715366 37.62467258 -26.4375 40.1875 C-24.9525 41.1775 -24.9525 41.1775 -23.4375 42.1875 C-23.7675 45.1575 -24.0975 48.1275 -24.4375 51.1875 C-22.766875 51.4659375 -22.766875 51.4659375 -21.0625 51.75 C-19.86625 52.224375 -18.67 52.69875 -17.4375 53.1875 C-16 56.8125 -16 56.8125 -15.4375 60.1875 C-11.86105152 61.4255014 -9.10055234 60.93676071 -5.4375 60.1875 C-4.7775 61.5075 -4.1175 62.8275 -3.4375 64.1875 C-1.06375139 64.52175735 -1.06375139 64.52175735 1.5625 64.1875 C1.975 63.506875 2.3875 62.82625 2.8125 62.125 C3.39 61.485625 3.9675 60.84625 4.5625 60.1875 C7.63285688 60.12708153 10.55350725 60.6071492 13.5625 61.1875 C13.8409375 59.516875 13.8409375 59.516875 14.125 57.8125 C14.599375 56.61625 15.07375 55.42 15.5625 54.1875 C19.1875 52.75 19.1875 52.75 22.5625 52.1875 C23.67094919 48.86215243 23.40704356 46.56567425 22.5625 43.1875 C23.2225 42.795625 23.8825 42.40375 24.5625 42 C26.78913597 40.3432738 26.78913597 40.3432738 27.0625 37.6875 C26.8975 36.8625 26.7325 36.0375 26.5625 35.1875 C25.881875 34.775 25.20125 34.3625 24.5 33.9375 C23.860625 33.36 23.22125 32.7825 22.5625 32.1875 C22.50208153 29.11714312 22.9821492 26.19649275 23.5625 23.1875 C22.44875 23.001875 21.335 22.81625 20.1875 22.625 C18.393125 21.9134375 18.393125 21.9134375 16.5625 21.1875 C15.125 17.5625 15.125 17.5625 14.5625 14.1875 C11.2625 14.5175 7.9625 14.8475 4.5625 15.1875 C3.9025 13.5375 3.2425 11.8875 2.5625 10.1875 C1.2425 10.1875 -0.0775 10.1875 -1.4375 10.1875 Z " fill="#439885" transform="translate(51.4375,13.8125)"/>
<path d="M0 0 C2.475 0.495 2.475 0.495 5 1 C5 1.66 5 2.32 5 3 C8.465 2.505 8.465 2.505 12 2 C12.3403125 3.175625 12.3403125 3.175625 12.6875 4.375 C13.78125 7.21875 13.78125 7.21875 16.625 8.3125 C17.40875 8.539375 18.1925 8.76625 19 9 C19 11.31 19 13.62 19 16 C19.66 16.33 20.32 16.66 21 17 C20.53721939 19.15964285 20.01661849 20.96780167 19 22.9375 C17.86916007 25.26985735 17.42457928 27.45252434 17 30 C16.38125 30.061875 15.7625 30.12375 15.125 30.1875 C12.72238859 30.828919 12.72238859 30.828919 11.75 33.5625 C11.5025 34.366875 11.255 35.17125 11 36 C9.02 35.67 7.04 35.34 5 35 C4.67 35.66 4.34 36.32 4 37 C0.97518225 36.41184099 -2.01642221 35.76995556 -5 35 C-6.11375 34.7215625 -6.11375 34.7215625 -7.25 34.4375 C-7.8275 34.293125 -8.405 34.14875 -9 34 C-9.0928125 33.071875 -9.0928125 33.071875 -9.1875 32.125 C-9.828919 29.72238859 -9.828919 29.72238859 -12.5625 28.75 C-13.366875 28.5025 -14.17125 28.255 -15 28 C-14.67 25.69 -14.34 23.38 -14 21 C-14.99 20.67 -15.98 20.34 -17 20 C-16.6875 18.0625 -16.6875 18.0625 -16 16 C-15.01 15.67 -14.02 15.34 -13 15 C-13.66 13.02 -14.32 11.04 -15 9 C-14.030625 8.5875 -13.06125 8.175 -12.0625 7.75 C-8.87739901 6.35100832 -8.87739901 6.35100832 -8.125 3.8125 C-8.08375 3.214375 -8.0425 2.61625 -8 2 C-5.69 2 -3.38 2 -1 2 C-0.67 1.34 -0.34 0.68 0 0 Z " fill="#5FD0B7" transform="translate(49,32)"/>
</svg>
