<?xml version="1.0" encoding="UTF-8"?>
<svg version="1.1" xmlns="http://www.w3.org/2000/svg" width="51" height="67">
<path d="M0 0 C0.77916779 -0.00524185 1.55833557 -0.0104837 2.3611145 -0.0158844 C4.00684419 -0.02229703 5.65261975 -0.02097739 7.29833984 -0.01245117 C9.80520148 -0.00395745 12.30977057 -0.03268303 14.81640625 -0.06445312 C16.41927015 -0.06606583 18.02213807 -0.06548629 19.625 -0.0625 C20.74091019 -0.07935097 20.74091019 -0.07935097 21.87936401 -0.09654236 C27.03743654 -0.02813865 29.97778475 1.17161399 33.9453125 4.43359375 C36.4041618 8.45716533 36.50017256 12.8309841 35.9453125 17.43359375 C34.21581023 22.73019444 31.01617462 25.29272975 26.6875 28.52734375 C24.2526768 31.19145524 23.85477799 32.83484694 23.9453125 36.43359375 C26.19726093 39.24012663 26.19726093 39.24012663 29.3203125 41.62109375 C35.64294661 46.83126439 35.64294661 46.83126439 36.18359375 51.484375 C36.36447196 56.99640058 35.73290767 60.1341614 31.9453125 64.43359375 C27.83517856 67.54508162 24.23177957 67.88818945 19.23046875 67.8671875 C18.497108 67.87242935 17.76374725 67.8776712 17.00816345 67.8830719 C15.46256776 67.88947322 13.91692324 67.8881796 12.37133789 67.87963867 C10.01815232 67.87113113 7.66739907 67.89990722 5.31445312 67.93164062 C3.80729239 67.93325305 2.30012739 67.93267431 0.79296875 67.9296875 C0.09591324 67.94092148 -0.60114227 67.95215546 -1.31932068 67.96372986 C-6.33953428 67.89281676 -9.17506315 66.55737599 -13.0546875 63.43359375 C-16.16789044 59.02472254 -15.64719614 53.59366902 -15.0546875 48.43359375 C-12.85797486 43.68869444 -9.90367608 41.34026351 -5.54296875 38.70703125 C-3.61104126 37.05399093 -3.30063282 35.94127151 -3.0546875 33.43359375 C-5.4528976 28.8370244 -8.53550895 25.94137623 -12.56640625 22.73046875 C-14.6595989 20.90647935 -15.02627716 19.7728788 -15.2578125 17.0078125 C-15.4158566 7.27492987 -15.4158566 7.27492987 -12.0546875 3.43359375 C-8.46597713 -0.13711305 -4.79834011 -0.01883209 0 0 Z " fill="#C786E6" transform="translate(15.0546875,-0.43359375)"/>
<path d="M0 0 C0.77916779 -0.00524185 1.55833557 -0.0104837 2.3611145 -0.0158844 C4.00684419 -0.02229703 5.65261975 -0.02097739 7.29833984 -0.01245117 C9.80520148 -0.00395745 12.30977057 -0.03268303 14.81640625 -0.06445312 C16.41927015 -0.06606583 18.02213807 -0.06548629 19.625 -0.0625 C20.74091019 -0.07935097 20.74091019 -0.07935097 21.87936401 -0.09654236 C27.03743654 -0.02813865 29.97778475 1.17161399 33.9453125 4.43359375 C36.4041618 8.45716533 36.50017256 12.8309841 35.9453125 17.43359375 C34.21581023 22.73019444 31.01617462 25.29272975 26.6875 28.52734375 C24.2526768 31.19145524 23.85477799 32.83484694 23.9453125 36.43359375 C26.19726093 39.24012663 26.19726093 39.24012663 29.3203125 41.62109375 C35.64294661 46.83126439 35.64294661 46.83126439 36.18359375 51.484375 C36.36447196 56.99640058 35.73290767 60.1341614 31.9453125 64.43359375 C27.83517856 67.54508162 24.23177957 67.88818945 19.23046875 67.8671875 C18.497108 67.87242935 17.76374725 67.8776712 17.00816345 67.8830719 C15.46256776 67.88947322 13.91692324 67.8881796 12.37133789 67.87963867 C10.01815232 67.87113113 7.66739907 67.89990722 5.31445312 67.93164062 C3.80729239 67.93325305 2.30012739 67.93267431 0.79296875 67.9296875 C0.09591324 67.94092148 -0.60114227 67.95215546 -1.31932068 67.96372986 C-6.33954185 67.89281665 -9.1760538 66.55905218 -13.0546875 63.43359375 C-15.10055987 60.51091893 -15.28323107 58.2040751 -15.1796875 54.68359375 C-15.16164063 53.884375 -15.14359375 53.08515625 -15.125 52.26171875 C-15.10179687 51.6584375 -15.07859375 51.05515625 -15.0546875 50.43359375 C-14.0646875 49.93859375 -14.0646875 49.93859375 -13.0546875 49.43359375 C-12.8278125 50.50609375 -12.6009375 51.57859375 -12.3671875 52.68359375 C-10.87726914 56.94050336 -9.87282741 58.14270981 -6.0546875 60.43359375 C-1.16857924 62.02038136 3.66788514 62.96028673 8.7578125 63.55859375 C9.80340332 63.68161865 9.80340332 63.68161865 10.87011719 63.80712891 C20.48496332 65.31185242 20.48496332 65.31185242 29.5703125 62.99609375 C31.65432032 59.11226099 31.6560396 55.74191888 30.9453125 51.43359375 C28.97629766 46.94423992 26.58199304 43.99717001 23.2578125 40.43359375 C19.89344123 36.75291407 19.04841276 34.38240647 18.9453125 29.43359375 C25.41433905 24.74037841 25.41433905 24.74037841 28.7578125 22.80859375 C31.21520967 21.47210057 31.21520967 21.47210057 32.9453125 18.43359375 C33.10014689 14.93099293 33.10014689 14.93099293 31.9453125 11.43359375 C27.47926333 7.74365678 23.49866373 6.59684211 17.9453125 5.74609375 C17.25953125 5.62943359 16.57375 5.51277344 15.8671875 5.39257812 C13.89543802 5.05956318 11.920403 4.74618368 9.9453125 4.43359375 C8.8934375 4.24925781 7.8415625 4.06492187 6.7578125 3.875 C-0.72606571 2.65522965 -0.72606571 2.65522965 -7.9609375 4.3046875 C-12.09690285 7.39652434 -13.10947092 10.61298919 -14.0546875 15.43359375 C-14.3846875 15.43359375 -14.7146875 15.43359375 -15.0546875 15.43359375 C-15.34913826 10.42793087 -15.17232613 7.44198628 -12.0546875 3.43359375 C-8.48578897 -0.15212385 -4.78986111 -0.01879882 0 0 Z " fill="#B378CB" transform="translate(15.0546875,-0.43359375)"/>
<path d="M0 0 C1.07846191 0.12689209 1.07846191 0.12689209 2.17871094 0.25634766 C4.66523789 0.56048067 7.14477598 0.89824436 9.625 1.25 C10.42454102 1.35884521 11.22408203 1.46769043 12.04785156 1.57983398 C18.42007073 2.58510876 24.15321541 4.49828021 29.0625 8.8125 C30.51365996 12.1985399 29.93844568 14.49646945 29 18 C26.35693422 21.7002921 22.73534919 23.29207301 18.70703125 25.16796875 C17.01192589 25.87947032 17.01192589 25.87947032 16 27 C16.21825351 32.91467 18.1622271 36.03576654 22.125 40.1875 C23.91549861 42.07640403 25.43883751 43.89569543 27 46 C26.8046875 48.36328125 26.8046875 48.36328125 26 50 C25.47212891 49.23816406 25.47212891 49.23816406 24.93359375 48.4609375 C22.32384692 44.82228265 19.79441205 41.6498879 16.3125 38.8125 C13.46874999 36.47949001 11.42701447 34.47834776 10 31 C10.22136027 27.83555436 10.49755997 26.45053507 12.890625 24.3046875 C14.05851562 23.59699219 14.05851562 23.59699219 15.25 22.875 C16.05953125 22.36839844 16.8690625 21.86179687 17.703125 21.33984375 C19.44217325 20.32539894 21.21437362 19.36751374 23 18.4375 C25.1799293 17.11535541 25.1799293 17.11535541 26.125 14.625 C26.22463515 11.81367501 26.22463515 11.81367501 24.125 9.3125 C20.14239941 6.36537556 16.83411313 5.6815307 12 5 C10.91332031 4.83371094 10.91332031 4.83371094 9.8046875 4.6640625 C-0.41285486 2.87052372 -0.41285486 2.87052372 -9.796875 5.27734375 C-11.868762 8.24390922 -11.49620585 11.56573321 -11 15 C-9.7000156 18.18362436 -9.7000156 18.18362436 -8 21 C-7.31471955 22.65910004 -6.64108137 24.32332564 -6 26 C-16.22525709 18.93218572 -16.22525709 18.93218572 -17.4140625 12.8984375 C-17.72337045 9.47313832 -17.65781956 7.03311405 -15.78125 4.0859375 C-10.92770585 -0.74471257 -6.50568044 -0.79935976 0 0 Z " fill="#E0C0F7" transform="translate(19,2)"/>
<path d="M0 0 C0.33 0 0.66 0 1 0 C1.226875 1.216875 1.45375 2.43375 1.6875 3.6875 C3.38350884 10.49559223 8.83637938 13.71516289 14.25 17.625 C16.55991896 20.75989002 16.56905066 22.9898171 16.38671875 26.8125 C15.79963447 30.1333808 14.4896704 31.77948315 12 34 C9.25 35.3125 9.25 35.3125 7 36 C6.67 38.64 6.34 41.28 6 44 C9.7559214 47.42931954 14.23466745 48.56429083 19 50 C19 50.33 19 50.66 19 51 C14.25440599 51.37964752 10.93011475 51.48228172 6.625 49.25 C2.48376782 45.70037241 -0.01358614 42.48007701 -1 37 C1.20428608 32.30391227 4.1928518 29.88140427 8.51171875 27.2734375 C10.44364624 25.62039718 10.75405468 24.50767776 11 22 C8.95246768 18.07556305 6.77385495 15.72626308 3.3125 13 C0.70144724 10.86419239 0.06948548 10.21714211 -1 6.875 C-1 4.33887768 -0.82575614 2.38551773 0 0 Z " fill="#D39AEB" transform="translate(1,11)"/>
<path d="M0 0 C0.33 0 0.66 0 1 0 C1.226875 1.0725 1.45375 2.145 1.6875 3.25 C3.17741836 7.50690961 4.18186009 8.70911606 8 11 C12.88621655 12.58682278 17.72258579 13.52615028 22.8125 14.125 C23.85917847 14.24911255 23.85917847 14.24911255 24.92700195 14.37573242 C36.02269676 15.98032521 36.02269676 15.98032521 46 12 C46.66 12.33 47.32 12.66 48 13 C44.61049949 16.62325917 42.70494127 17.91035736 37.63354492 18.17700195 C36.24929636 18.20387657 34.86490311 18.22386528 33.48046875 18.23828125 C32.74427811 18.246353 32.00808746 18.25442474 31.24958801 18.26274109 C29.69205058 18.27656035 28.13448313 18.28729215 26.5769043 18.29516602 C24.98924852 18.3066837 23.4016314 18.32713247 21.81420898 18.35668945 C19.51519571 18.3994896 17.21733161 18.41555128 14.91796875 18.42578125 C14.21463913 18.44328934 13.51130951 18.46079742 12.78666687 18.47883606 C7.72839603 18.45676778 4.90240988 17.15723718 1 14 C-1.01396117 11.10889814 -1.25080847 8.79446599 -1.1875 5.3125 C-1.18105469 4.52488281 -1.17460937 3.73726562 -1.16796875 2.92578125 C-1 1 -1 1 0 0 Z " fill="#854ADA" transform="translate(1,49)"/>
<path d="M0 0 C0.33 0.99 0.66 1.98 1 3 C-1.02352147 6.07575263 -3.2773242 8.25135345 -6.1875 10.4375 C-9.15787918 12.74071406 -9.15787918 12.74071406 -10.01171875 15.8359375 C-10.33986644 19.18281363 -10.33986644 19.18281363 -7.7265625 21.66796875 C-6.70304687 22.49941406 -5.67953125 23.33085938 -4.625 24.1875 C1.70867983 29.40677287 1.70867983 29.40677287 2.23828125 34.12109375 C2.44059732 40.43548469 2.44059732 40.43548469 0 43.5625 C-0.66 44.036875 -1.32 44.51125 -2 45 C-3.18780564 42.62438872 -2.97964166 41.43707573 -2.8125 38.8125 C-2.76782607 31.82103011 -6.13403931 27.88138481 -10.6875 23 C-14.05187127 19.31932032 -14.89689974 16.94881272 -15 12 C-8.49858357 7.28328612 -8.49858357 7.28328612 -5.25 5.4375 C-2.84243395 3.8993328 -1.55523608 2.37378138 0 0 Z " fill="#A673E9" transform="translate(49,17)"/>
<path d="M0 0 C0.66 0.33 1.32 0.66 2 1 C2 1.66 2 2.32 2 3 C0.03852126 4.38938077 -1.96166576 5.7260411 -4 7 C-3.65855609 12.9158868 -1.85964443 16.01285208 2.125 20.1875 C3.91549861 22.07640403 5.43883751 23.89569543 7 26 C6.8046875 28.36328125 6.8046875 28.36328125 6 30 C5.64808594 29.49210937 5.29617187 28.98421875 4.93359375 28.4609375 C2.32384692 24.82228265 -0.20558795 21.6498879 -3.6875 18.8125 C-6.53125001 16.47949001 -8.57298553 14.47834776 -10 11 C-9.84765625 8.5546875 -9.84765625 8.5546875 -9 6 C-6.93359375 4.19921875 -6.93359375 4.19921875 -4.4375 2.6875 C-3.61121094 2.17574219 -2.78492188 1.66398437 -1.93359375 1.13671875 C-1.29550781 0.76160156 -0.65742187 0.38648437 0 0 Z " fill="#DAADF2" transform="translate(39,22)"/>
<path d="M0 0 C3 1 3 1 4 3 C4.3125 5.9375 4.3125 5.9375 4 9 C1.90968238 11.17071445 -0.20688763 12.09684102 -2.9375 13.375 C-6.28317962 15.15025857 -8.44997091 17.22496834 -11 20 C-10.16617675 15.11617812 -8.28226507 13.20059719 -4.4375 10.375 C-3.63183594 9.82585938 -2.82617188 9.27671875 -1.99609375 8.7109375 C0.24390214 6.79094102 0.76447174 5.90676346 1 3 C0.67 2.01 0.34 1.02 0 0 Z " fill="#AA79EB" transform="translate(11,30)"/>
<path d="M0 0 C0.33 0 0.66 0 1 0 C1.226875 1.216875 1.45375 2.43375 1.6875 3.6875 C2.76122074 8.01284313 4.63577094 10.0362744 8 13 C9.35555293 14.64864545 10.69631653 16.31003995 12 18 C7.38102521 18 5.26219212 15.19017977 1.96875 12.1640625 C-0.49911672 9.45136773 -1.16662741 7.66580305 -1 4 C-0.5625 1.625 -0.5625 1.625 0 0 Z " fill="#BC8FEE" transform="translate(1,11)"/>
<path d="M0 0 C0.33 0 0.66 0 1 0 C1.47853579 4.88106506 1.74336366 7.95929087 -1.1875 12.0625 C-4.18926109 14.13037986 -5.45033999 14.50709429 -9 14 C-9 13.34 -9 12.68 -9 12 C-8.030625 11.690625 -7.06125 11.38125 -6.0625 11.0625 C-3.15934208 10.30476658 -3.15934208 10.30476658 -2 9 C-1.79395915 7.67218122 -1.6337041 6.33704105 -1.5 5 C-1.11111111 1.11111111 -1.11111111 1.11111111 0 0 Z " fill="#D191E7" transform="translate(46,51)"/>
<path d="M0 0 C2 1.5 2 1.5 4 4 C4.35800135 6.75871627 4.18660165 9.20097524 4 12 C3.34 12 2.68 12 2 12 C1.51171875 10.01432292 1.0234375 8.02864583 0.53515625 6.04296875 C0.08989295 4.34316798 -0.44433985 2.66698046 -1 1 C-0.67 0.67 -0.34 0.34 0 0 Z " fill="#D8ABF1" transform="translate(13,27)"/>
<path d="M0 0 C2.90802461 2.21928194 4.95312762 3.92969143 7 7 C6.625 9.1875 6.625 9.1875 6 11 C4.99126984 9.73608512 3.99328178 8.46359117 3 7.1875 C2.443125 6.47980469 1.88625 5.77210937 1.3125 5.04296875 C0 3 0 3 0 0 Z " fill="#D7A1ED" transform="translate(39,41)"/>
<path d="M0 0 C0 4.38968456 -2.12805101 5.76905739 -5 9 C-5.33 8.34 -5.66 7.68 -6 7 C-2.25 1.125 -2.25 1.125 0 0 Z " fill="#9D69E6" transform="translate(6,41)"/>
</svg>
